name Walk9.mot
datacolumns 19
datarows 22
range 2.04500000 2.15000000
endheader

                time	   L_ground_force_vx	   L_ground_force_vy	   L_ground_force_vz	   L_ground_force_px	   L_ground_force_py	   L_ground_force_pz	   R_ground_force_vx	   R_ground_force_vy	   R_ground_force_vz	   R_ground_force_px	   R_ground_force_py	   R_ground_force_pz	   L_ground_torque_x	   L_ground_torque_y	   L_ground_torque_z	   R_ground_torque_x	   R_ground_torque_y	   R_ground_torque_z	
          2.04500000	          0.00024684	          0.02541423	         -0.00281914	         -0.00005389	          0.00000000	         -0.00005524	        -36.29529088	        858.97125447	        -39.14774321	          0.56640034	          0.00000000	          0.09637211	          0.00000000	          0.00006985	          0.00000000	          0.00000000	          1.20332917	          0.00000000	
          2.05000000	         -0.00442124	          0.00992377	         -0.00131211	         -0.00003937	          0.00000000	         -0.00004313	        -34.27246970	        849.18478182	        -38.51183590	          0.56771895	          0.00000000	          0.09668022	          0.00000000	          0.00001540	          0.00000000	          0.00000000	          0.92780676	          0.00000000	
          2.05500000	         -0.00706513	         -0.00079481	         -0.00024192	         -0.00002694	          0.00000000	         -0.00003195	        -32.40303243	        840.29404582	        -38.01666970	          0.56903107	          0.00000000	          0.09697181	          0.00000000	         -0.00002074	          0.00000000	          0.00000000	          0.66540111	          0.00000000	
          2.06000000	         -0.00820184	         -0.00760557	          0.00046351	         -0.00001684	          0.00000000	         -0.00002226	        -30.67888698	        832.30135163	        -37.65132076	          0.57033702	          0.00000000	          0.09724784	          0.00000000	         -0.00004227	          0.00000000	          0.00000000	          0.41566067	          0.00000000	
          2.06500000	         -0.00828212	         -0.01137167	          0.00087923	         -0.00000903	          0.00000000	         -0.00001428	        -29.09138533	        825.20892781	        -37.39138226	          0.57163443	          0.00000000	          0.09750777	          0.00000000	         -0.00005274	          0.00000000	          0.00000000	          0.17839581	          0.00000000	
          2.07000000	         -0.00767859	         -0.01288743	          0.00107629	         -0.00000331	          0.00000000	         -0.00000803	        -27.62802782	        819.02246607	        -37.20253659	          0.57291791	          0.00000000	          0.09775006	          0.00000000	         -0.00005528	          0.00000000	          0.00000000	         -0.04686557	          0.00000000	
          2.07500000	         -0.00668427	         -0.01284022	          0.00111754	          0.00000062	          0.00000000	         -0.00000339	        -26.26924598	        813.75089035	        -37.04500569	          0.57417912	          0.00000000	          0.09797224	          0.00000000	         -0.00005253	          0.00000000	          0.00000000	         -0.26158588	          0.00000000	
          2.08000000	         -0.00551799	         -0.01179444	          0.00105560	          0.00000309	          0.00000000	         -0.00000015	        -24.98788926	        809.40533005	        -36.87902071	          0.57540741	          0.00000000	          0.09817113	          0.00000000	         -0.00004662	          0.00000000	          0.00000000	         -0.46863450	          0.00000000	
          2.08500000	         -0.00433367	         -0.01019100	          0.00093240	          0.00000443	          0.00000000	          0.00000194	        -23.75111787	        805.99613029	        -36.67065427	          0.57659090	          0.00000000	          0.09834390	          0.00000000	         -0.00003914	          0.00000000	          0.00000000	         -0.67186972	          0.00000000	
          2.09000000	         -0.00323145	         -0.00835677	          0.00077965	          0.00000494	          0.00000000	          0.00000313	        -22.52403581	        803.52696226	        -36.39681494	          0.57771739	          0.00000000	          0.09848814	          0.00000000	         -0.00003125	          0.00000000	          0.00000000	         -0.87585908	          0.00000000	
          2.09500000	         -0.00226905	         -0.00651959	          0.00062004	          0.00000488	          0.00000000	          0.00000364	        -21.27351115	        801.98937880	        -36.04807873	          0.57877626	          0.00000000	          0.09860228	          0.00000000	         -0.00002372	          0.00000000	          0.00000000	         -1.08560854	          0.00000000	
          2.10000000	         -0.00147242	         -0.00482582	          0.00046864	          0.00000445	          0.00000000	          0.00000369	        -19.97048307	        801.36171264	        -35.62910963	          0.57976056	          0.00000000	          0.09868581	          0.00000000	         -0.00001701	          0.00000000	          0.00000000	         -1.30583429	          0.00000000	
          2.10500000	         -0.00084511	         -0.00335797	          0.00033449	          0.00000383	          0.00000000	          0.00000342	        -18.59148015	        801.61378471	        -35.15764070	          0.58066641	          0.00000000	          0.09873933	          0.00000000	         -0.00001136	          0.00000000	          0.00000000	         -1.54052640	          0.00000000	
          2.11000000	         -0.00037599	         -0.00215110	          0.00022201	          0.00000312	          0.00000000	          0.00000298	        -17.12100006	        802.71066548	        -34.66278730	          0.58149473	          0.00000000	          0.09876476	          0.00000000	         -0.00000685	          0.00000000	          0.00000000	         -1.79271127	          0.00000000	
          2.11500000	         -0.00004542	         -0.00120703	          0.00013232	          0.00000242	          0.00000000	          0.00000246	        -15.55336847	        804.61574149	        -34.18175359	          0.58225282	          0.00000000	          0.09876633	          0.00000000	         -0.00000341	          0.00000000	          0.00000000	         -2.06434082	          0.00000000	
          2.12000000	          0.00017017	         -0.00050615	          0.00006433	          0.00000178	          0.00000000	          0.00000194	        -13.89199869	        807.29206855	        -33.75566680	          0.58295220	          0.00000000	          0.09875068	          0.00000000	         -0.00000093	          0.00000000	          0.00000000	         -2.35613154	          0.00000000	
          2.12500000	          0.00029496	         -0.00001666	          0.00001565	          0.00000123	          0.00000000	          0.00000144	        -12.14722001	        810.70138531	        -33.42560337	          0.58360502	          0.00000000	          0.09872547	          0.00000000	          0.00000073	          0.00000000	          0.00000000	         -2.66765509	          0.00000000	
          2.13000000	          0.00035165	          0.00029856	         -0.00001681	          0.00000078	          0.00000000	          0.00000102	        -10.33312421	        814.80189584	        -33.22880754	          0.58422453	          0.00000000	          0.09869700	          0.00000000	          0.00000174	          0.00000000	          0.00000000	         -2.99776542	          0.00000000	
          2.13500000	          0.00036020	          0.00047709	         -0.00003629	          0.00000043	          0.00000000	          0.00000066	         -8.46432534	        819.54854802	        -33.19489955	          0.58482538	          0.00000000	          0.09867006	          0.00000000	          0.00000225	          0.00000000	          0.00000000	         -3.34514192	          0.00000000	
          2.14000000	          0.00033720	          0.00055384	         -0.00004592	          0.00000017	          0.00000000	          0.00000038	         -6.55353256	        824.89366153	        -33.34152043	          0.58542288	          0.00000000	          0.09864831	          0.00000000	          0.00000239	          0.00000000	          0.00000000	         -3.70833428	          0.00000000	
          2.14500000	          0.00029578	          0.00055926	         -0.00004846	         -0.00000001	          0.00000000	          0.00000017	         -4.61089355	        830.78792448	        -33.67263291	          0.58603206	          0.00000000	          0.09863472	          0.00000000	          0.00000230	          0.00000000	          0.00000000	         -4.08557209	          0.00000000	
          2.15000000	          0.00024582	          0.00051851	         -0.00004626	         -0.00000012	          0.00000000	          0.00000002	         -2.64427283	        837.17778635	        -34.17852721	          0.58666727	          0.00000000	          0.09863130	          0.00000000	          0.00000206	          0.00000000	          0.00000000	         -4.47458170	          0.00000000	
